<svg width="22" height="22" viewBox="0 0 22 22" fill="none" xmlns="http://www.w3.org/2000/svg">
<g clip-path="url(#clip0_34_24)">
<path d="M10.8665 1.36295C10.777 1.36295 10.6894 1.38951 10.615 1.43926C10.5405 1.48901 10.4825 1.55972 10.4482 1.64246C10.4139 1.72519 10.405 1.81623 10.4224 1.90405C10.4399 1.99188 10.483 2.07256 10.5464 2.13588C10.6097 2.1992 10.6904 2.24232 10.7782 2.2598C10.866 2.27727 10.9571 2.2683 11.0398 2.23403C11.1225 2.19976 11.1932 2.14173 11.243 2.06727C11.2927 1.99281 11.3193 1.90527 11.3193 1.81572C11.3193 1.69564 11.2716 1.58048 11.1867 1.49557C11.1018 1.41066 10.9866 1.36295 10.8665 1.36295ZM15.3942 0.00463867H6.33881C5.7384 0.00463867 5.16257 0.243151 4.73802 0.667707C4.31346 1.09226 4.07495 1.66808 4.07495 2.2685V19.4738C4.07495 19.7711 4.13351 20.0655 4.24728 20.3401C4.36105 20.6148 4.5278 20.8644 4.73802 21.0746C4.94824 21.2848 5.1978 21.4516 5.47247 21.5653C5.74713 21.6791 6.04151 21.7377 6.33881 21.7377H15.3942C15.6915 21.7377 15.9859 21.6791 16.2606 21.5653C16.5352 21.4516 16.7848 21.2848 16.995 21.0746C17.2052 20.8644 17.372 20.6148 17.4858 20.3401C17.5995 20.0655 17.6581 19.7711 17.6581 19.4738V2.2685C17.6581 1.66808 17.4196 1.09226 16.995 0.667707C16.5705 0.243151 15.9946 0.00463867 15.3942 0.00463867V0.00463867ZM16.7525 19.4738C16.7525 19.8341 16.6094 20.1795 16.3547 20.4343C16.1 20.689 15.7545 20.8321 15.3942 20.8321H6.33881C5.97856 20.8321 5.63307 20.689 5.37833 20.4343C5.1236 20.1795 4.98049 19.8341 4.98049 19.4738V16.3044H16.7525V19.4738ZM16.7525 15.3989H4.98049V3.62681H16.7525V15.3989ZM16.7525 2.72127H4.98049V2.2685C4.98049 1.90825 5.1236 1.56276 5.37833 1.30802C5.63307 1.05329 5.97856 0.910181 6.33881 0.910181H15.3942C15.7545 0.910181 16.1 1.05329 16.3547 1.30802C16.6094 1.56276 16.7525 1.90825 16.7525 2.2685V2.72127ZM10.8665 19.9266C11.1352 19.9266 11.3978 19.8469 11.6212 19.6977C11.8445 19.5484 12.0186 19.3363 12.1214 19.0881C12.2242 18.8399 12.2511 18.5668 12.1987 18.3033C12.1463 18.0398 12.017 17.7978 11.827 17.6078C11.637 17.4178 11.395 17.2885 11.1315 17.236C10.868 17.1836 10.5949 17.2105 10.3467 17.3133C10.0985 17.4162 9.88638 17.5903 9.73712 17.8136C9.58787 18.037 9.50821 18.2996 9.50821 18.5683C9.50821 18.9285 9.65131 19.274 9.90605 19.5287C10.1608 19.7835 10.5063 19.9266 10.8665 19.9266ZM10.8665 18.1155C10.9561 18.1155 11.0436 18.142 11.1181 18.1918C11.1925 18.2415 11.2506 18.3123 11.2848 18.395C11.3191 18.4777 11.3281 18.5688 11.3106 18.6566C11.2931 18.7444 11.25 18.8251 11.1867 18.8884C11.1234 18.9517 11.0427 18.9949 10.9549 19.0123C10.867 19.0298 10.776 19.0208 10.6933 18.9866C10.6105 18.9523 10.5398 18.8943 10.4901 18.8198C10.4403 18.7453 10.4137 18.6578 10.4137 18.5683C10.4137 18.4482 10.4615 18.333 10.5464 18.2481C10.6313 18.1632 10.7464 18.1155 10.8665 18.1155Z" fill="black"/>
</g>
<defs>
<clipPath id="clip0_34_24">
<rect width="21.733" height="21.733" fill="white" transform="translate(0 0.00463867)"/>
</clipPath>
</defs>
</svg>
