<svg width="22" height="23" viewBox="0 0 22 23" fill="none" xmlns="http://www.w3.org/2000/svg">
<path d="M19.0163 9.28107H18.3371V3.16866C18.3371 2.98854 18.2656 2.81579 18.1382 2.68842C18.0108 2.56106 17.8381 2.4895 17.658 2.4895H4.07482C3.8947 2.4895 3.72195 2.56106 3.59459 2.68842C3.46722 2.81579 3.39567 2.98854 3.39567 3.16866V9.28107H2.71651C2.53639 9.28107 2.36364 9.35263 2.23627 9.47999C2.10891 9.60736 2.03735 9.7801 2.03735 9.96023V18.1101C2.03735 18.2902 2.10891 18.463 2.23627 18.5903C2.36364 18.7177 2.53639 18.7893 2.71651 18.7893H4.07482V19.4684C4.07482 19.6486 4.14638 19.8213 4.27375 19.9487C4.40111 20.076 4.57386 20.1476 4.75398 20.1476C4.9341 20.1476 5.10685 20.076 5.23422 19.9487C5.36158 19.8213 5.43314 19.6486 5.43314 19.4684V18.7893H16.2996V19.4684C16.2996 19.6486 16.3712 19.8213 16.4986 19.9487C16.6259 20.076 16.7987 20.1476 16.9788 20.1476C17.1589 20.1476 17.3317 20.076 17.459 19.9487C17.5864 19.8213 17.658 19.6486 17.658 19.4684V18.7893H19.0163C19.1964 18.7893 19.3691 18.7177 19.4965 18.5903C19.6239 18.463 19.6954 18.2902 19.6954 18.1101V9.96023C19.6954 9.7801 19.6239 9.60736 19.4965 9.47999C19.3691 9.35263 19.1964 9.28107 19.0163 9.28107ZM4.75398 3.84782H16.9788V9.28107H15.6205C15.4404 9.28107 15.2676 9.35263 15.1403 9.47999C15.0129 9.60736 14.9413 9.7801 14.9413 9.96023V11.9977H6.79145V9.96023C6.79145 9.7801 6.7199 9.60736 6.59253 9.47999C6.46517 9.35263 6.29242 9.28107 6.1123 9.28107H4.75398V3.84782ZM6.79145 13.356H14.9413V14.7143H6.79145V13.356ZM18.3371 17.431H3.39567V10.6394H5.43314V15.3935C5.43314 15.5736 5.50469 15.7464 5.63206 15.8737C5.75943 16.0011 5.93217 16.0726 6.1123 16.0726H15.6205C15.8006 16.0726 15.9734 16.0011 16.1007 15.8737C16.2281 15.7464 16.2996 15.5736 16.2996 15.3935V10.6394H18.3371V17.431Z" fill="black"/>
</svg>
