<svg width="22" height="23" viewBox="0 0 22 23" fill="none" xmlns="http://www.w3.org/2000/svg">
<path d="M15.2041 4.81764L7.24438 12.7864V16.7799H11.2378L19.1975 8.82014C19.7245 8.28921 20.0203 7.57148 20.0203 6.82341C20.0203 6.07535 19.7245 5.35762 19.1975 4.82669C18.6601 4.31332 17.9459 4.02611 17.2026 4.02442C16.4594 4.02274 15.7439 4.30671 15.2041 4.81764ZM17.9207 7.53427L10.4953 14.9688H9.05547V13.529L16.49 6.09445C16.6838 5.90903 16.9417 5.80554 17.2099 5.80554C17.4781 5.80554 17.736 5.90903 17.9298 6.09445C18.0242 6.18933 18.0989 6.30195 18.1496 6.42583C18.2003 6.54971 18.2259 6.6824 18.2251 6.81624C18.2242 6.95009 18.1969 7.08244 18.1447 7.20568C18.0924 7.32891 18.0163 7.44059 17.9207 7.53427Z" fill="black"/>
<path d="M16.2997 14.9689H14.4886V18.591H3.62212V7.19025L6.71002 4.10235H15.3942V2.29126H5.96748L1.81104 6.4477V20.4021H16.2997V14.9689Z" fill="black"/>
</svg>
