<svg width="19" height="16" viewBox="0 0 19 16" fill="none" xmlns="http://www.w3.org/2000/svg">
<path d="M9.956 0.712983L9.5 0.884951L9.044 0.712983C7.67475 0.190808 6.20499 -0.0493152 4.73137 0.00840335C3.25775 0.0661219 1.81364 0.420374 0.494 1.04787L0 1.30129V16L1.3775 15.3483C2.45311 14.8397 3.6291 14.5527 4.82889 14.5059C6.02868 14.4591 7.22536 14.6537 8.341 15.0768L9.5 15.5203L10.659 15.0768C11.7746 14.6537 12.9713 14.4591 14.1711 14.5059C15.3709 14.5527 16.5469 14.8397 17.6225 15.3483L19 16V1.30129L18.4775 1.04787C17.1617 0.42431 15.7226 0.0721833 14.2542 0.0144785C12.7859 -0.0432262 11.3213 0.194789 9.956 0.712983ZM5.206 12.6783C4.08257 12.6769 2.96624 12.848 1.9 13.1852V2.44171C3.95872 1.62725 6.2699 1.61101 8.341 2.39646L8.55 2.47791V13.2214C7.46477 12.8651 6.32534 12.6816 5.1775 12.6783H5.206ZM17.1 13.1852C14.9425 12.4953 12.6075 12.4953 10.45 13.1852V2.47791L10.659 2.39646C12.7301 1.61101 15.0413 1.62725 17.1 2.44171V13.1852Z" fill="black"/>
</svg>
