<svg width="22" height="23" viewBox="0 0 22 23" fill="none" xmlns="http://www.w3.org/2000/svg">
<path d="M8.52111 12.3014H10.7125C10.8317 12.3021 10.9498 12.2793 11.0602 12.2342C11.1705 12.1891 11.2708 12.1227 11.3555 12.0388L14.5973 8.79697C14.766 8.62731 14.8606 8.3978 14.8606 8.15857C14.8606 7.91933 14.766 7.68982 14.5973 7.52016L12.4059 5.34686C12.2362 5.1782 12.0067 5.08353 11.7675 5.08353C11.5282 5.08353 11.2987 5.1782 11.1291 5.34686L7.88723 8.5887C7.71661 8.75589 7.61897 8.98372 7.61556 9.22258V11.3959C7.61556 11.636 7.71097 11.8664 7.88079 12.0362C8.05061 12.206 8.28094 12.3014 8.52111 12.3014ZM9.42665 9.58479L11.772 7.26661L12.6775 8.17215L10.3412 10.4903H9.4357L9.42665 9.58479ZM19.0163 13.207H18.1108V4.15154H19.0163C19.2565 4.15154 19.4868 4.05613 19.6567 3.88631C19.8265 3.71649 19.9219 3.48616 19.9219 3.246C19.9219 3.00583 19.8265 2.7755 19.6567 2.60568C19.4868 2.43586 19.2565 2.34045 19.0163 2.34045H2.71658C2.47641 2.34045 2.24608 2.43586 2.07626 2.60568C1.90644 2.7755 1.81104 3.00583 1.81104 3.246C1.81104 3.48616 1.90644 3.71649 2.07626 3.88631C2.24608 4.05613 2.47641 4.15154 2.71658 4.15154H3.62212V13.207H2.71658C2.47641 13.207 2.24608 13.3024 2.07626 13.4722C1.90644 13.642 1.81104 13.8723 1.81104 14.1125C1.81104 14.3527 1.90644 14.583 2.07626 14.7528C2.24608 14.9226 2.47641 15.0181 2.71658 15.0181H9.96092V16.0594L5.8407 18.7761C5.67167 18.8807 5.54176 19.038 5.47103 19.2238C5.4003 19.4096 5.39267 19.6135 5.44932 19.8041C5.50597 19.9946 5.62375 20.1612 5.7845 20.2782C5.94524 20.3952 6.14001 20.456 6.33875 20.4513C6.51678 20.4533 6.69097 20.3995 6.8368 20.2974L9.96092 18.2327V19.5458C9.96092 19.7859 10.0563 20.0163 10.2261 20.1861C10.396 20.3559 10.6263 20.4513 10.8665 20.4513C11.1066 20.4513 11.337 20.3559 11.5068 20.1861C11.6766 20.0163 11.772 19.7859 11.772 19.5458V18.2327L14.8961 20.2974C15.042 20.3995 15.2161 20.4533 15.3942 20.4513C15.5876 20.4498 15.7755 20.3864 15.9303 20.2703C16.0852 20.1543 16.1987 19.9917 16.2544 19.8064C16.3101 19.6211 16.305 19.4229 16.2398 19.2407C16.1746 19.0586 16.0528 18.9021 15.8922 18.7942L11.772 16.0775V15.0181H19.0163C19.2565 15.0181 19.4868 14.9226 19.6567 14.7528C19.8265 14.583 19.9219 14.3527 19.9219 14.1125C19.9219 13.8723 19.8265 13.642 19.6567 13.4722C19.4868 13.3024 19.2565 13.207 19.0163 13.207ZM16.2997 13.207H5.43321V4.15154H16.2997V13.207Z" fill="black"/>
</svg>
